<?xml version="1.0" encoding="UTF-8"?><svg id="Layer_1" xmlns="http://www.w3.org/2000/svg" viewBox="0 0 462.422 568.103"><defs><style>.cls-1{fill:none;stroke:#000;stroke-miterlimit:10;stroke-width:5px;}</style></defs><path d="m7.667,505.103H0v-100.872h43.683c5.487,0,10.481,1.337,15.053,4.08,4.502,2.673,8.089,6.261,10.763,10.763,2.673,4.502,4.009,9.566,4.009,15.053,0,7.176-2.181,13.436-6.683,18.853-4.432,5.346-10.129,8.793-17.023,10.34l23.706,41.784h-7.597l-23.424-41.15H7.667v41.15Zm0-93.204v44.456h36.016c6.12,0,11.396-2.181,15.757-6.542,4.291-4.36,6.472-9.566,6.472-15.687,0-6.189-2.181-11.396-6.472-15.757-4.361-4.29-9.637-6.471-15.757-6.471H7.667Z"/><path d="m102.917,498.28c-6.823-4.502-12.24-10.622-16.32-18.219-4.009-7.668-6.049-16.108-6.049-25.394s2.04-17.727,6.049-25.324c4.08-7.667,9.497-13.717,16.32-18.289,6.823-4.502,14.35-6.823,22.65-6.823h2.392c8.23,0,15.827,2.321,22.65,6.823,6.753,4.572,12.24,10.622,16.25,18.289,4.08,7.598,6.12,16.038,6.12,25.324s-2.04,17.726-6.12,25.394c-4.01,7.597-9.497,13.717-16.25,18.219-6.823,4.572-14.42,6.823-22.65,6.823h-2.392c-8.3,0-15.827-2.251-22.65-6.823Zm-9.708-22.088c3.376,6.472,7.878,11.677,13.576,15.546,5.627,3.799,11.888,5.769,18.782,5.769h2.321c6.894,0,13.154-1.97,18.852-5.769,5.627-3.869,10.2-9.074,13.506-15.546,3.376-6.472,5.064-13.646,5.064-21.524s-1.688-15.054-5.064-21.525c-3.306-6.472-7.878-11.606-13.506-15.476-5.698-3.869-11.958-5.768-18.852-5.768h-2.321c-6.894,0-13.154,1.898-18.782,5.768-5.698,3.869-10.2,9.004-13.576,15.476s-5.064,13.646-5.064,21.525,1.688,15.053,5.064,21.524Z"/><path d="m202.389,498.28c-6.823-4.502-12.24-10.622-16.32-18.219-4.009-7.668-6.049-16.108-6.049-25.394s2.04-17.727,6.049-25.324c4.08-7.667,9.497-13.717,16.32-18.289,6.823-4.502,14.35-6.823,22.65-6.823h2.392c8.23,0,15.827,2.321,22.65,6.823,6.753,4.572,12.24,10.622,16.25,18.289,4.079,7.598,6.119,16.038,6.119,25.324s-2.04,17.726-6.119,25.394c-4.01,7.597-9.497,13.717-16.25,18.219-6.823,4.572-14.42,6.823-22.65,6.823h-2.392c-8.3,0-15.827-2.251-22.65-6.823Zm-9.708-22.088c3.376,6.472,7.878,11.677,13.576,15.546,5.627,3.799,11.888,5.769,18.782,5.769h2.321c6.893,0,13.154-1.97,18.852-5.769,5.627-3.869,10.199-9.074,13.506-15.546,3.376-6.472,5.064-13.646,5.064-21.524s-1.688-15.054-5.064-21.525c-3.307-6.472-7.879-11.606-13.506-15.476-5.698-3.869-11.959-5.768-18.852-5.768h-2.321c-6.894,0-13.154,1.898-18.782,5.768-5.698,3.869-10.2,9.004-13.576,15.476s-5.064,13.646-5.064,21.525,1.688,15.053,5.064,21.524Z"/><path d="m338.229,408.311c4.502,2.673,8.089,6.261,10.762,10.763,2.674,4.502,4.01,9.566,4.01,15.053s-1.336,10.481-4.01,14.983c-2.673,4.502-6.26,8.16-10.762,10.833-4.572,2.673-9.567,4.01-15.054,4.01h-36.016v41.15h-7.668v-100.872h43.684c5.486,0,10.481,1.337,15.054,4.08Zm.633,10.059c-4.291-4.29-9.566-6.471-15.687-6.471h-36.016v44.456h36.016c6.12,0,11.396-2.181,15.687-6.542,4.361-4.36,6.542-9.566,6.542-15.687,0-6.189-2.181-11.396-6.542-15.757Z"/><path d="m367.707,505.103h-7.667v-100.872h7.667v46.638h58.244v-46.638h7.668v100.872h-7.668v-46.567h-58.244v46.567Z"/><circle cx="454.747" cy="497.428" r="7.675"/><path d="m50.953,568.103h-2.531l11.883-33.609h2.555l11.883,33.609h-2.555l-2.648-7.477v.023h-15.938l-2.648,7.453Zm3.539-10.008h14.156l-7.078-19.992-7.078,19.992Z"/><path d="m91.547,568.103h-2.555v-33.609h14.555c1.828,0,3.492.445,5.016,1.359,1.5.891,2.695,2.086,3.586,3.586s1.336,3.188,1.336,5.016c0,2.391-.727,4.477-2.227,6.281-1.477,1.781-3.375,2.93-5.672,3.445l7.898,13.922h-2.531l-7.805-13.711h-11.602v13.711Zm0-31.055v14.812h12c2.039,0,3.797-.727,5.25-2.18,1.43-1.453,2.156-3.188,2.156-5.227,0-2.062-.727-3.797-2.156-5.25-1.453-1.43-3.211-2.156-5.25-2.156h-12Z"/><path d="m127.781,551.298c-.023-.773.023-1.852.164-3.188.141-1.359.562-2.859,1.289-4.547,1.5-3.328,3.703-5.789,6.586-7.359.469-.305,1.266-.656,2.438-1.078,1.148-.422,2.555-.633,4.219-.609.422,0,1.125.094,2.062.258.938.188,1.969.562,3.141,1.148,1.148.562,2.273,1.43,3.352,2.578.844,1.008,1.5,1.969,1.922,2.953s.703,1.828.867,2.578l.023.094-2.531.023-.023-.07c-.07-.586-.352-1.359-.797-2.273-.445-.938-1.125-1.875-2.062-2.789-1.57-1.453-3.562-2.25-5.93-2.344-1.688,0-3.117.258-4.266.82s-1.992,1.055-2.508,1.477c-1.336,1.031-2.344,2.039-3,3.07-.656,1.008-1.055,1.758-1.219,2.203-.609,1.383-.961,2.672-1.078,3.844-.117,1.195-.164,2.227-.117,3.117v.094c-.047.914,0,1.969.117,3.164.094,1.195.469,2.484,1.078,3.891.164.469.562,1.195,1.219,2.227.656,1.008,1.664,2.039,3,3.047.516.445,1.359.938,2.508,1.477,1.148.562,2.578.844,4.266.844,2.367-.117,4.359-.891,5.93-2.367.938-.914,1.617-1.828,2.062-2.742.445-.938.727-1.688.797-2.273l.023-.07,2.531-.023-.023.117c-.141.727-.445,1.594-.867,2.578-.422.961-1.078,1.945-1.922,2.93-1.078,1.172-2.203,2.039-3.352,2.602s-2.203.938-3.141,1.125-1.617.281-2.062.281h-.445c-1.031,0-1.945-.094-2.789-.328-.82-.211-1.523-.445-2.109-.727-.586-.258-1.031-.469-1.312-.633-2.883-1.57-5.086-4.031-6.586-7.383-.703-1.641-1.125-3.141-1.289-4.477-.141-1.336-.188-2.391-.141-3.188l-.023-.07Z"/><path d="m170.648,568.103h-2.555v-33.609h2.555v15.539h19.406v-15.539h2.555v33.609h-2.555v-15.516h-19.406v15.516Z"/><path d="m209.391,568.103h-2.531v-33.609h2.531v33.609Z"/><path d="m234.633,537.048h-10.992v-2.555h24.516v2.555h-10.992v31.055h-2.531v-31.055Z"/><path d="m264.938,568.103h-2.531v-33.609h21.773v2.555h-19.242v12.984h19.242v2.555h-19.242v12.984h19.242v2.531h-19.242Z"/><path d="m298.477,551.298c-.023-.773.023-1.852.164-3.188.141-1.359.562-2.859,1.289-4.547,1.5-3.328,3.703-5.789,6.586-7.359.469-.305,1.266-.656,2.438-1.078,1.148-.422,2.555-.633,4.219-.609.422,0,1.125.094,2.062.258.938.188,1.969.562,3.141,1.148,1.148.562,2.273,1.43,3.352,2.578.844,1.008,1.5,1.969,1.922,2.953s.703,1.828.867,2.578l.023.094-2.531.023-.023-.07c-.07-.586-.352-1.359-.797-2.273-.445-.938-1.125-1.875-2.062-2.789-1.57-1.453-3.562-2.25-5.93-2.344-1.688,0-3.117.258-4.266.82s-1.992,1.055-2.508,1.477c-1.336,1.031-2.344,2.039-3,3.07-.656,1.008-1.055,1.758-1.219,2.203-.609,1.383-.961,2.672-1.078,3.844-.117,1.195-.164,2.227-.117,3.117v.094c-.047.914,0,1.969.117,3.164.094,1.195.469,2.484,1.078,3.891.164.469.562,1.195,1.219,2.227.656,1.008,1.664,2.039,3,3.047.516.445,1.359.938,2.508,1.477,1.148.562,2.578.844,4.266.844,2.367-.117,4.359-.891,5.93-2.367.938-.914,1.617-1.828,2.062-2.742.445-.938.727-1.688.797-2.273l.023-.07,2.531-.023-.023.117c-.141.727-.445,1.594-.867,2.578-.422.961-1.078,1.945-1.922,2.93-1.078,1.172-2.203,2.039-3.352,2.602s-2.203.938-3.141,1.125-1.617.281-2.062.281h-.445c-1.031,0-1.945-.094-2.789-.328-.82-.211-1.523-.445-2.109-.727-.586-.258-1.031-.469-1.312-.633-2.883-1.57-5.086-4.031-6.586-7.383-.703-1.641-1.125-3.141-1.289-4.477-.141-1.336-.188-2.391-.141-3.188l-.023-.07Z"/><path d="m349.781,537.048h-10.992v-2.555h24.516v2.555h-10.992v31.055h-2.531v-31.055Z"/><path d="m399.727,563.791c-1.031,1.336-2.32,2.367-3.844,3.164-1.523.773-3.188,1.148-4.992,1.148h-2.156c-2.062,0-3.938-.492-5.625-1.5s-3.023-2.344-4.031-4.031c-1.008-1.711-1.523-3.562-1.523-5.625h2.555c0,1.594.375,3.023,1.148,4.336.797,1.312,1.828,2.344,3.141,3.117,1.289.773,2.742,1.172,4.336,1.172h2.156c1.594,0,3.047-.398,4.359-1.172,1.289-.773,2.344-1.805,3.117-3.117s1.148-2.742,1.148-4.336c0-.281-.047-.633-.164-1.031-.094-.422-.281-.844-.562-1.266-.82-1.078-2.016-1.711-3.562-1.852-1.57-.164-3.305-.164-5.203-.023-2.016.188-3.984.164-5.883-.023s-3.492-.914-4.781-2.18c-.586-.656-1.008-1.336-1.266-2.016s-.398-1.312-.445-1.828c-.07-.539-.094-.891-.094-1.055,0-2.062.516-3.938,1.523-5.625s2.344-3.023,4.031-4.031,3.562-1.523,5.625-1.523h2.156c2.062,0,3.938.516,5.625,1.523s3.047,2.344,4.031,4.031c1.008,1.688,1.523,3.562,1.523,5.625h-2.555c0-1.594-.375-3.047-1.148-4.336-.773-1.312-1.828-2.344-3.117-3.141-1.312-.773-2.766-1.148-4.359-1.148h-2.156c-1.594,0-3.047.375-4.336,1.148-1.312.797-2.344,1.828-3.141,3.141-.773,1.289-1.148,2.742-1.148,4.336,0,.328.094.727.234,1.219s.375.961.656,1.406c.797,1.055,1.969,1.688,3.516,1.852,1.547.188,3.258.211,5.156.07,1.969-.117,3.914-.094,5.789.094,1.898.211,3.492.914,4.781,2.156.258.258.492.562.703.891s.422.797.633,1.359c.492,1.477.586,2.977.258,4.523-.375,1.688-1.078,3.211-2.109,4.547Z"/><polygon class="cls-1" points="372.422 157.753 3.422 274.753 3.422 364.753 372.422 364.753 372.422 157.753"/><polygon class="cls-1" points="300.422 4.753 156.422 103.753 156.422 364.753 300.422 364.753 300.422 4.753"/><rect class="cls-1" x="300.422" y="67.753" width="117" height="297"/><rect x="210.422" y="301.753" width="36" height="63"/></svg>